<?xml version="1.0" encoding="UTF-8"?> <svg xmlns="http://www.w3.org/2000/svg" viewBox="0 0 268.33 94.25"><defs><style>.cls-1,.cls-3{fill:#005080;}.cls-1{opacity:0.98;}.cls-2{fill:#ffcb04;}.cls-4{fill:#818990;}.cls-5{fill:#8a8f95;}.cls-6{fill:#828a91;}</style></defs><title>jaguar-building-services-logo</title><g id="Layer_2" data-name="Layer 2"><g id="Layer_1-2" data-name="Layer 1"><polygon class="cls-1" points="46.15 78.58 57.27 79.75 57.27 68.21 46.15 66.61 46.15 78.58"></polygon><path class="cls-2" d="M46.15,82.29l11.08,1.24.08,9.39-11.12.57Q46.18,87.9,46.15,82.29Z"></path><polygon class="cls-2" points="27.07 45.47 43.6 48.99 43.6 38.02 27.07 33.4 27.07 45.47"></polygon><polygon class="cls-1" points="27.4 30.24 43.97 34.89 43.97 23.92 27.43 19.3 27.4 30.24"></polygon><path class="cls-1" d="M11.69,80.83l12.83-4.37V63.87L11.69,68.48Z"></path><path class="cls-1" d="M11.69,90.38l12.83,3.87V80.17L11.69,84.59Z"></path><path class="cls-1" d="M11.78,64.94l12.71-4.3c0-1.32,0-2.64,0-4,0-2.61,0-5.2.08-7.77L11.66,53.25Z"></path><polygon class="cls-2" points="27.07 76.58 43.6 78.31 43.6 66.24 27.07 63.86 27.07 76.58"></polygon><path class="cls-1" d="M27.07,94.23l16.51-.74V82L27.07,80.15Z"></path><polygon class="cls-1" points="46.15 22.12 57.27 25.7 57.27 15.04 46.15 10.47 46.15 22.12"></polygon><polygon class="cls-1" points="59.82 26.51 73.39 30.87 73.39 21.65 59.82 16.08 59.82 26.51"></polygon><polygon class="cls-1" points="59.82 52.43 73.39 55.32 73.39 46.34 59.82 42.55 59.82 52.43"></polygon><polygon class="cls-1" points="59.82 0 59.82 0.07 73.39 6.72 73.39 0 59.82 0"></polygon><polygon class="cls-1" points="57.27 12.29 57.27 8.27 47.48 8.27 57.27 12.29"></polygon><polygon class="cls-1" points="46.15 64.03 57.27 65.64 57.27 54.49 46.15 52.13 46.15 64.03"></polygon><polygon class="cls-2" points="46.15 36.09 57.27 39.2 57.27 28.37 46.15 24.79 46.15 36.09"></polygon><polygon class="cls-1" points="59.82 80.01 73.39 81.43 73.39 70.53 59.82 68.57 59.82 80.01"></polygon><path class="cls-1" d="M59.88,92.79l13.51-.71v-7L59.83,83.71Q59.85,88.24,59.88,92.79Z"></path><polygon class="cls-2" points="46.15 49.53 57.27 51.89 57.27 41.84 46.15 38.73 46.15 49.53"></polygon><path class="cls-3" d="M102.42,42.15a17.67,17.67,0,0,1-.23,3.15,6.63,6.63,0,0,1-1.12,2.51,6.87,6.87,0,0,1-2.61,2.36A7.54,7.54,0,0,1,95,51a7.89,7.89,0,0,1-5.36-1.92,6.46,6.46,0,0,1-2.37-5.14h5.14a2.49,2.49,0,0,0,4.43.9,4.72,4.72,0,0,0,.49-2.36V22.59h5.14Z"></path><path class="cls-1" d="M138.44,50.36h-5.67l-3-7.17H119.9l-3.07,7.17h-5.67l11.56-27.77h4ZM127.71,38.2l-3-8.44-3,8.44Z"></path><path class="cls-3" d="M175.47,36.81A13.3,13.3,0,0,1,171.1,46.9a15.21,15.21,0,0,1-20.84-.06,13.5,13.5,0,0,1-4.39-10.2,13.88,13.88,0,0,1,4.35-10.34,14.39,14.39,0,0,1,10.39-4.23,15.11,15.11,0,0,1,8.15,2.36,12.81,12.81,0,0,1,5.32,6.3h-6.15a8.86,8.86,0,0,0-3.21-2.68,9,9,0,0,0-4.11-1,9.44,9.44,0,0,0-6.41,2.39,9.23,9.23,0,0,0-2.33,3.17,9,9,0,0,0-.17,7.3,8.86,8.86,0,0,0,2,3,9.46,9.46,0,0,0,7.17,3.1,9.06,9.06,0,0,0,4.73-1.37A8.87,8.87,0,0,0,169,41.05H157.35V36.21h18.12Z"></path><path class="cls-3" d="M203.65,39.9a18.49,18.49,0,0,1-.34,4,8.21,8.21,0,0,1-1.76,3.57A10.45,10.45,0,0,1,198.29,50a8.92,8.92,0,0,1-4.06,1,8.74,8.74,0,0,1-3.84-.92,10,10,0,0,1-3.25-2.46A8.52,8.52,0,0,1,185.26,44a18,18,0,0,1-.37-4.09V22.59H190V39.9c0,1,0,1.75.07,2.25a4.55,4.55,0,0,0,.46,1.5,4.65,4.65,0,0,0,1.53,1.74,3.83,3.83,0,0,0,2.14.61,3.9,3.9,0,0,0,3.49-1.94,4.36,4.36,0,0,0,.64-1.73,19,19,0,0,0,.11-2.43V22.59h5.18Z"></path><path class="cls-3" d="M240,50.36h-5.66l-3-7.17h-9.86l-3.08,7.17h-5.67l11.56-27.77h4ZM229.24,38.2l-3-8.44-3,8.44Z"></path><path class="cls-3" d="M267.62,50.36h-6.37L254,39.74,254,50.36h-5.14V22.59h8a16,16,0,0,1,4.69.53,7.31,7.31,0,0,1,2.51,1.42,8.92,8.92,0,0,1,2.4,3.06,8.5,8.5,0,0,1,.86,3.77,9.39,9.39,0,0,1-.63,3.25,8.06,8.06,0,0,1-3.89,4.52,11.06,11.06,0,0,1-2.72,1Zm-5.47-18.69a3.66,3.66,0,0,0-1.5-3.15,4,4,0,0,0-1.67-.77,12,12,0,0,0-2.16-.17H254v8.26h2.81a8.45,8.45,0,0,0,2.59-.32,4.07,4.07,0,0,0,1.5-.85A4,4,0,0,0,262.15,31.67Z"></path><path class="cls-4" d="M94.82,65.48a3.32,3.32,0,0,1-1.45,2.81,3.46,3.46,0,0,1-1.45.62,9.38,9.38,0,0,1-1.81.16H87.17V57.3h2.21c.82,0,1.42,0,1.81.06a3.7,3.7,0,0,1,1.28.41,3.16,3.16,0,0,1,1.17,1.08,2.76,2.76,0,0,1,.13,2.87,2,2,0,0,1-1,.91,2.73,2.73,0,0,1,1.5,1.07A3.06,3.06,0,0,1,94.82,65.48Zm-2.91-4.92a1,1,0,0,0-.2-.61,1.29,1.29,0,0,0-.53-.41,1.24,1.24,0,0,0-.37-.09l-.42,0h-1v2.4h.59c.49,0,.78,0,.88,0a2.27,2.27,0,0,0,.45-.16,1.12,1.12,0,0,0,.47-.42A1.35,1.35,0,0,0,91.91,60.56Zm.72,4.83a1.21,1.21,0,0,0-.19-.71,1.8,1.8,0,0,0-.59-.51,2.34,2.34,0,0,0-.77-.2l-.58,0H89.35v3h.91a4.83,4.83,0,0,0,1-.08,2.06,2.06,0,0,0,.8-.33A1.29,1.29,0,0,0,92.63,65.39Z"></path><path class="cls-4" d="M106.6,64.64a8.29,8.29,0,0,1-.14,1.68,3.56,3.56,0,0,1-.75,1.52,4.36,4.36,0,0,1-1.38,1.08,3.76,3.76,0,0,1-1.72.42A3.72,3.72,0,0,1,101,69a4.4,4.4,0,0,1-1.37-1,3.55,3.55,0,0,1-.8-1.54,7.3,7.3,0,0,1-.16-1.73V57.3h2.18v7.34c0,.42,0,.74,0,1a1.9,1.9,0,0,0,.19.63,2,2,0,0,0,.65.74,1.59,1.59,0,0,0,.91.26,1.65,1.65,0,0,0,1.48-.82,1.81,1.81,0,0,0,.27-.73,8.76,8.76,0,0,0,0-1V57.3h2.19Z"></path><path class="cls-4" d="M113.26,69.07h-2.18V57.3h2.18Z"></path><path class="cls-5" d="M123.53,69.07h-5.77V57.3h2.18V67h3.59Z"></path><path class="cls-6" d="M136.41,63.25a6,6,0,0,1-.53,2.45,5.54,5.54,0,0,1-1.49,2,5.46,5.46,0,0,1-2.3,1.13,12.76,12.76,0,0,1-2.6.22H127V57.3h2.46a11.77,11.77,0,0,1,2.61.24,5.69,5.69,0,0,1,2.33,1.12,5.49,5.49,0,0,1,1.5,2.05A6.54,6.54,0,0,1,136.41,63.25Zm-2.18,0a3.85,3.85,0,0,0-.41-1.78,3.44,3.44,0,0,0-1.16-1.35,4.13,4.13,0,0,0-1.61-.61,12.34,12.34,0,0,0-1.73-.09h-.16v7.5l.27,0a4.64,4.64,0,0,0,.73,0,4.45,4.45,0,0,0,1.39-.2,4,4,0,0,0,1.25-.64,3.63,3.63,0,0,0,1-1.28A3.68,3.68,0,0,0,134.23,63.25Z"></path><path class="cls-4" d="M142.55,69.07h-2.18V57.3h2.18Z"></path><path class="cls-4" d="M156.58,69.07h-2.4l-5-8.57v8.58H147V57.3h2.45l4.91,8.6V57.3h2.18Z"></path><path class="cls-4" d="M173,63.33a5.62,5.62,0,0,1-1.86,4.27,6.44,6.44,0,0,1-8.83,0,5.74,5.74,0,0,1-1.86-4.32,5.89,5.89,0,0,1,1.84-4.38,6.09,6.09,0,0,1,4.41-1.8,6.47,6.47,0,0,1,3.45,1,5.47,5.47,0,0,1,2.26,2.67h-2.61a3.77,3.77,0,0,0-1.36-1.13,3.85,3.85,0,0,0-1.74-.42,4,4,0,0,0-2.72,1,3.91,3.91,0,0,0-1,1.34,3.83,3.83,0,0,0-.37,1.63,4,4,0,0,0,.29,1.47,3.87,3.87,0,0,0,.84,1.26,4,4,0,0,0,3,1.31,3.85,3.85,0,0,0,2-.58,3.72,3.72,0,0,0,1.44-1.51h-4.92v-2H173Z"></path><path class="cls-4" d="M190.56,65.62a3.52,3.52,0,0,1-1.13,2.64,3.75,3.75,0,0,1-2.69,1.08,3.81,3.81,0,0,1-2.67-1,3.32,3.32,0,0,1-1.13-2.55h2.27a1.33,1.33,0,0,0,.47,1.07,1.8,1.8,0,0,0,1.17.39,1.5,1.5,0,0,0,1.07-.42,1.35,1.35,0,0,0,.46-1,1.61,1.61,0,0,0-.65-1.35,5.34,5.34,0,0,0-1.4-.64q-.78-.25-1.08-.39a3.26,3.26,0,0,1-1-.69,3.33,3.33,0,0,1-.67-1,3.21,3.21,0,0,1-.25-1.22,3.16,3.16,0,0,1,1-2.38,3.43,3.43,0,0,1,2.46-1,3.36,3.36,0,0,1,2.4,1,3.12,3.12,0,0,1,1,2.36H188a1.12,1.12,0,0,0-.39-.88,1.35,1.35,0,0,0-.93-.34,1.05,1.05,0,0,0-.84.35,1.21,1.21,0,0,0-.32.88,1.18,1.18,0,0,0,.48,1,3.2,3.2,0,0,0,1,.49c.71.24,1.11.39,1.21.43a4.2,4.2,0,0,1,1.08.65A3.22,3.22,0,0,1,190.56,65.62Z"></path><path class="cls-4" d="M200.64,69.07h-6.32V57.3h6.32v2.12H196.5v2.72h4v2.11h-4V67h4.14Z"></path><path class="cls-4" d="M212.81,69.07h-2.7l-3.05-4.5,0,4.5h-2.18V57.3h3.4a6.71,6.71,0,0,1,2,.23,2.91,2.91,0,0,1,1.06.6,3.69,3.69,0,0,1,1,1.3,3.64,3.64,0,0,1,.37,1.59,3.74,3.74,0,0,1-.28,1.38,3.39,3.39,0,0,1-.7,1.18,3.65,3.65,0,0,1-.94.74,5,5,0,0,1-1.15.41Zm-2.32-7.92a1.54,1.54,0,0,0-.63-1.33,1.76,1.76,0,0,0-.71-.33,4.85,4.85,0,0,0-.92-.07H207v3.5h1.19a3.47,3.47,0,0,0,1.09-.14,1.7,1.7,0,0,0,.64-.36A1.67,1.67,0,0,0,210.49,61.15Z"></path><path class="cls-4" d="M226.29,57.3l-4.56,11.77h-1.8L215.37,57.3h2.29l3.16,9,3.18-9Z"></path><path class="cls-4" d="M231.89,69.07h-2.18V57.3h2.18Z"></path><path class="cls-4" d="M247.4,60.66h-2.48a4,4,0,0,0-1.39-1.07,4,4,0,0,0-1.71-.39,3.64,3.64,0,0,0-2.72,1.19A4,4,0,0,0,238,63.26,3.91,3.91,0,0,0,239.11,66a3.66,3.66,0,0,0,2.73,1.19,3.69,3.69,0,0,0,1.6-.35,4.72,4.72,0,0,0,1.37-1h2.53a5.34,5.34,0,0,1-2.18,2.53,6.19,6.19,0,0,1-3.29,1,5.84,5.84,0,0,1-4.3-1.82,6,6,0,0,1-1.79-4.34,5.91,5.91,0,0,1,1.78-4.3,5.79,5.79,0,0,1,4.25-1.8,6.32,6.32,0,0,1,3.37,1A5.41,5.41,0,0,1,247.4,60.66Z"></path><path class="cls-4" d="M257.36,69.07H251V57.3h6.32v2.12h-4.14v2.72h4v2.11h-4V67h4.14Z"></path><path class="cls-4" d="M268.33,65.62a3.52,3.52,0,0,1-1.13,2.64,3.75,3.75,0,0,1-2.69,1.08,3.81,3.81,0,0,1-2.67-1,3.32,3.32,0,0,1-1.13-2.55H263a1.33,1.33,0,0,0,.47,1.07,1.8,1.8,0,0,0,1.17.39,1.54,1.54,0,0,0,1.08-.42,1.38,1.38,0,0,0,.45-1,1.61,1.61,0,0,0-.65-1.35,5.34,5.34,0,0,0-1.4-.64q-.78-.25-1.08-.39a3.26,3.26,0,0,1-1-.69,3.33,3.33,0,0,1-.67-1,3.21,3.21,0,0,1-.25-1.22,3.16,3.16,0,0,1,1-2.38,3.43,3.43,0,0,1,2.46-1,3.36,3.36,0,0,1,2.4,1,3.12,3.12,0,0,1,1,2.36H265.8a1.12,1.12,0,0,0-.39-.88,1.35,1.35,0,0,0-.93-.34,1.05,1.05,0,0,0-.84.35,1.21,1.21,0,0,0-.32.88,1.18,1.18,0,0,0,.48,1,3.2,3.2,0,0,0,1,.49c.71.24,1.11.39,1.21.43a4.2,4.2,0,0,1,1.08.65A3.22,3.22,0,0,1,268.33,65.62Z"></path><path class="cls-1" d="M12.67,21.14l12.71-4.43,0-1.86c0-2.6.06-5.19.08-7.77L12.56,11.42Z"></path><path class="cls-1" d="M0,38.54,12.8,33l0-1.87c0-2.6.06-5.19.08-7.77L.13,28.58Z"></path></g></g></svg> 