<?xml version="1.0" encoding="UTF-8"?>
<svg id="Layer_2" data-name="Layer 2" xmlns="http://www.w3.org/2000/svg" viewBox="0 0 409.11 202.98">
  <defs>
    <style>
      .cls-1 {
        fill: #fff;
        stroke-width: 0px;
      }
    </style>
  </defs>
  <g id="Layer_1-2" data-name="Layer 1">
    <g>
      <path class="cls-1" d="M203.27,10.07l-4.44,13.63c-3.55-1.66-8.38-3.13-15.17-3.13-7.29,0-13.21,1.07-13.21,6.57,0,9.7,26.71,6.08,26.71,26.87,0,18.92-17.65,23.83-33.61,23.83-7.09,0-15.28-1.68-21.28-3.54l4.34-13.92c3.64,2.36,10.94,3.93,16.95,3.93s14.68-1.08,14.68-8.14c0-10.99-26.71-6.87-26.71-26.17,0-17.66,15.58-22.95,30.66-22.95,8.48,0,16.46.89,21.09,3.04M150.34,8.21l-14.29,68.45h-18.42l6.11-29.32h-21.79l-6.11,29.32h-18.42l14.29-68.45h18.42l-5.41,26.19h21.78l5.42-26.19h18.42ZM84.91,8.21l-14.58,68.45h-22.88l-14.38-47.36h-.19l-9.57,47.36H5.96L20.65,8.21h22.96l14.1,47.46h.19l9.66-47.46h17.35ZM211.18,0H0v85.04h211.18V0Z"/>
      <g>
        <path class="cls-1" d="M4.86,110.62h13.44l9.96,31.74h.12l9.96-31.74h13.44v41.88h-8.04v-34.56h-.12l-11.28,34.56h-8.04l-11.28-34.56-.12.12v34.44H4.86v-41.88Z"/>
        <path class="cls-1" d="M85.56,150.76c-2.94,1.62-6.3,2.46-10.62,2.46-10.2,0-16.14-5.88-16.14-16.02,0-8.94,4.74-16.32,14.34-16.32,11.46,0,14.7,7.86,14.7,18.66h-21.36c.36,4.98,3.84,7.8,8.82,7.8,3.9,0,7.26-1.44,10.26-3.12v6.54ZM80.16,134.02c-.24-3.9-2.04-7.26-6.54-7.26s-6.78,3.12-7.14,7.26h13.68Z"/>
        <path class="cls-1" d="M114.72,149.02h-.12c-2.4,3-5.7,4.2-9.48,4.2-9.48,0-12.96-7.8-12.96-16.26s3.48-16.08,12.96-16.08c4.02,0,6.84,1.38,9.24,4.32h.12v-17.7h8.04v45h-7.8v-3.48ZM107.34,146.98c5.34,0,7.08-5.64,7.08-10.02s-2.04-9.84-7.2-9.84-6.66,5.7-6.66,9.84,1.5,10.02,6.78,10.02Z"/>
        <path class="cls-1" d="M127.32,121.6h8.52l6.84,22.86h.12l6.24-22.86h9.36l6.72,22.86h.12l6.42-22.86h7.68l-9.48,30.9h-9.48l-6.72-23.58h-.12l-6.6,23.58h-9.18l-10.44-30.9Z"/>
        <path class="cls-1" d="M185.52,123.22c3.12-1.44,7.32-2.34,10.74-2.34,9.42,0,13.32,3.9,13.32,13.02v3.96c0,3.12.06,5.46.12,7.74.06,2.34.18,4.5.36,6.9h-7.08c-.3-1.62-.3-3.66-.36-4.62h-.12c-1.86,3.42-5.88,5.34-9.54,5.34-5.46,0-10.8-3.3-10.8-9.18,0-4.62,2.22-7.32,5.28-8.82,3.06-1.5,7.02-1.8,10.38-1.8h4.44c0-4.98-2.22-6.66-6.96-6.66-3.42,0-6.84,1.32-9.54,3.36l-.24-6.9ZM194.94,147.34c2.46,0,4.38-1.08,5.64-2.76,1.32-1.74,1.68-3.96,1.68-6.36h-3.48c-3.6,0-8.94.6-8.94,5.34,0,2.64,2.22,3.78,5.1,3.78Z"/>
        <path class="cls-1" d="M230.34,144.16h.12l7.44-22.56h8.16l-11.58,30.66c-2.58,6.84-4.44,13.56-12.84,13.56-1.92,0-3.84-.3-5.7-.84l.54-5.94c1.02.36,2.16.54,4.14.54,3.24,0,5.22-2.22,5.22-5.52l-11.82-32.46h8.88l7.44,22.56Z"/>
        <path class="cls-1" d="M2.96,174.58h6.88l10.64,20.88h.08v-20.88h5.36v27.92h-6.84l-10.68-20.88h-.08v20.88H2.96v-27.92Z"/>
        <path class="cls-1" d="M32.12,174.58h5.6v11.28h11.2v-11.28h5.6v27.92h-5.6v-12.24h-11.2v12.24h-5.6v-27.92Z"/>
        <path class="cls-1" d="M76,179.7c-1.76-.76-3.72-1.2-5.68-1.2s-4.4.84-4.4,3.88c0,4.84,12.24,2.8,12.24,12.16,0,6.12-4.84,8.44-10.48,8.44-3.04,0-4.4-.4-7.16-1.08l.52-5.04c1.92,1.04,4.12,1.72,6.32,1.72s4.96-1.08,4.96-3.6c0-5.32-12.24-3.12-12.24-12.36,0-6.24,4.84-8.52,9.76-8.52,2.4,0,4.64.32,6.68,1l-.52,4.6Z"/>
        <path class="cls-1" d="M94.36,174.58h15.52v4.4h-9.92v6.88h9.44v4.4h-9.44v12.24h-5.6v-27.92Z"/>
        <path class="cls-1" d="M123.32,181.42c6.12,0,10.8,4.12,10.8,10.92,0,5.92-3.96,10.64-10.8,10.64s-10.76-4.72-10.76-10.64c0-6.8,4.68-10.92,10.76-10.92ZM123.32,198.82c4.12,0,5.2-3.68,5.2-7.12,0-3.16-1.68-6.12-5.2-6.12s-5.16,3.04-5.16,6.12c0,3.4,1.08,7.12,5.16,7.12Z"/>
        <path class="cls-1" d="M157.23,202.5h-5.08v-2.8h-.08c-1.64,2-3.96,3.28-6.76,3.28-4.88,0-7-3.44-7-8.08v-13h5.36v11c0,2.52.04,5.92,3.48,5.92,3.88,0,4.72-4.2,4.72-6.84v-10.08h5.36v20.6Z"/>
        <path class="cls-1" d="M162.76,181.9h5.08v2.8h.08c1.68-2.36,3.96-3.28,6.76-3.28,4.88,0,7,3.44,7,8.08v13h-5.36v-11c0-2.52-.04-5.92-3.48-5.92-3.88,0-4.72,4.2-4.72,6.84v10.08h-5.36v-20.6Z"/>
        <path class="cls-1" d="M200.92,200.18h-.08c-1.6,2-3.8,2.8-6.32,2.8-6.32,0-8.64-5.2-8.64-10.84s2.32-10.72,8.64-10.72c2.68,0,4.56.92,6.16,2.88h.08v-11.8h5.36v30h-5.2v-2.32ZM196,198.82c3.56,0,4.72-3.76,4.72-6.68s-1.36-6.56-4.8-6.56-4.44,3.8-4.44,6.56,1,6.68,4.52,6.68Z"/>
        <path class="cls-1" d="M212.56,182.98c2.08-.96,4.88-1.56,7.16-1.56,6.28,0,8.88,2.6,8.88,8.68v2.64c0,2.08.04,3.64.08,5.16.04,1.56.12,3,.24,4.6h-4.72c-.2-1.08-.2-2.44-.24-3.08h-.08c-1.24,2.28-3.92,3.56-6.36,3.56-3.64,0-7.2-2.2-7.2-6.12,0-3.08,1.48-4.88,3.52-5.88,2.04-1,4.68-1.2,6.92-1.2h2.96c0-3.32-1.48-4.44-4.64-4.44-2.28,0-4.56.88-6.36,2.24l-.16-4.6ZM218.84,199.06c1.64,0,2.92-.72,3.76-1.84.88-1.16,1.12-2.64,1.12-4.24h-2.32c-2.4,0-5.96.4-5.96,3.56,0,1.76,1.48,2.52,3.4,2.52Z"/>
        <path class="cls-1" d="M235.64,185.82h-3.96v-3.92h3.96v-4.12l5.36-1.72v5.84h4.76v3.92h-4.76v9.6c0,1.76.48,3.4,2.52,3.4.96,0,1.88-.2,2.44-.56l.16,4.24c-1.12.32-2.36.48-3.96.48-4.2,0-6.52-2.6-6.52-6.68v-10.48Z"/>
        <path class="cls-1" d="M249.56,173.02h5.36v5.12h-5.36v-5.12ZM249.56,181.9h5.36v20.6h-5.36v-20.6Z"/>
        <path class="cls-1" d="M270,181.42c6.12,0,10.8,4.12,10.8,10.92,0,5.92-3.96,10.64-10.8,10.64s-10.76-4.72-10.76-10.64c0-6.8,4.68-10.92,10.76-10.92ZM270,198.82c4.12,0,5.2-3.68,5.2-7.12,0-3.16-1.68-6.12-5.2-6.12s-5.16,3.04-5.16,6.12c0,3.4,1.08,7.12,5.16,7.12Z"/>
        <path class="cls-1" d="M285,181.9h5.08v2.8h.08c1.68-2.36,3.96-3.28,6.76-3.28,4.88,0,7,3.44,7,8.08v13h-5.36v-11c0-2.52-.04-5.92-3.48-5.92-3.88,0-4.72,4.2-4.72,6.84v10.08h-5.36v-20.6Z"/>
        <path class="cls-1" d="M326.12,178.98h-8v-4.4h21.6v4.4h-8v23.52h-5.6v-23.52Z"/>
        <path class="cls-1" d="M339.24,181.9h4.76v4.68h.08c.24-1.92,2.44-5.16,5.64-5.16.52,0,1.08,0,1.64.16v5.4c-.48-.28-1.44-.44-2.4-.44-4.36,0-4.36,5.44-4.36,8.4v7.56h-5.36v-20.6Z"/>
        <path class="cls-1" d="M373.59,202.5h-5.08v-2.8h-.08c-1.64,2-3.96,3.28-6.76,3.28-4.88,0-7-3.44-7-8.08v-13h5.36v11c0,2.52.04,5.92,3.48,5.92,3.88,0,4.72-4.2,4.72-6.84v-10.08h5.36v20.6Z"/>
        <path class="cls-1" d="M391.35,186.22c-1.64-.56-2.84-.88-4.8-.88-1.44,0-3.16.52-3.16,2.28,0,3.28,9.32,1.2,9.32,8.64,0,4.8-4.28,6.72-8.64,6.72-2.04,0-4.12-.36-6.08-.88l.32-4.4c1.68.84,3.44,1.36,5.28,1.36,1.36,0,3.52-.52,3.52-2.52,0-4.04-9.32-1.28-9.32-8.72,0-4.44,3.88-6.4,8.08-6.4,2.52,0,4.16.4,5.84.76l-.36,4.04Z"/>
        <path class="cls-1" d="M398.63,185.82h-3.96v-3.92h3.96v-4.12l5.36-1.72v5.84h4.76v3.92h-4.76v9.6c0,1.76.48,3.4,2.52,3.4.96,0,1.88-.2,2.44-.56l.16,4.24c-1.12.32-2.36.48-3.96.48-4.2,0-6.52-2.6-6.52-6.68v-10.48Z"/>
      </g>
    </g>
  </g>
</svg>